<svg xmlns="http://www.w3.org/2000/svg" width="70.593" height="71.89" viewBox="0 0 70.593 71.89"><g transform="translate(-3.366)"><g transform="translate(3.366)"><g transform="translate(0)"><path d="M38.826,0c-.019.019-.058.019-.116.019A35.267,35.267,0,0,0,11.051,57.264L5.908,69.206a1.917,1.917,0,0,0,1,2.523,1.958,1.958,0,0,0,1.1.135l18.857-3.313a33.982,33.982,0,0,0,11.749,2.042A35.3,35.3,0,0,0,38.826,0Zm-.193,66.76a30.918,30.918,0,0,1-10.883-1.984,1.847,1.847,0,0,0-1.021-.1L10.859,67.453l4.2-9.766a1.937,1.937,0,0,0-.308-2.022,30.793,30.793,0,0,1-5.355-8.9A31.448,31.448,0,1,1,70.126,35.133v.116A31.533,31.533,0,0,1,38.634,66.76Z" transform="translate(-3.366)"/></g></g><g transform="translate(24.804 28.256)"><path d="M126.993,146.7h-10.4a1.926,1.926,0,0,0,0,3.852h10.4a1.926,1.926,0,1,0,0-3.852Z" transform="translate(-114.666 -146.7)"/></g><g transform="translate(24.804 37.887)"><path d="M140.476,196.7H116.592a1.926,1.926,0,0,0,0,3.852h23.884a1.926,1.926,0,0,0,0-3.852Z" transform="translate(-114.666 -196.7)"/></g></g></svg>