<svg xmlns="http://www.w3.org/2000/svg" xmlns:xlink="http://www.w3.org/1999/xlink" width="47" height="47" viewBox="0 0 47 47">
  <defs>
    <linearGradient id="linear-gradient" x1="0.5" x2="0.5" y2="1" gradientUnits="objectBoundingBox">
      <stop offset="0" stop-color="#dd4454"/>
      <stop offset="1" stop-color="#dd9044"/>
    </linearGradient>
  </defs>
  <g id="email_3_" data-name="email (3)" transform="translate(-0.336 0.207)">
    <path id="Exclusion_1" data-name="Exclusion 1" d="M23.5,47a23.673,23.673,0,0,1-4.736-.477,23.371,23.371,0,0,1-8.4-3.536A23.569,23.569,0,0,1,1.847,32.647,23.382,23.382,0,0,1,.477,28.236a23.729,23.729,0,0,1,0-9.472,23.371,23.371,0,0,1,3.536-8.4A23.569,23.569,0,0,1,14.353,1.847,23.382,23.382,0,0,1,18.764.477a23.729,23.729,0,0,1,9.472,0,23.371,23.371,0,0,1,8.4,3.536,23.569,23.569,0,0,1,8.514,10.339,23.381,23.381,0,0,1,1.369,4.411,23.729,23.729,0,0,1,0,9.472,23.371,23.371,0,0,1-3.536,8.4,23.569,23.569,0,0,1-10.339,8.514,23.381,23.381,0,0,1-4.411,1.369A23.673,23.673,0,0,1,23.5,47ZM15.179,16.615A1.778,1.778,0,0,0,13.4,18.392V28.655a1.778,1.778,0,0,0,1.776,1.776H31.837a1.778,1.778,0,0,0,1.776-1.776V18.392a1.778,1.778,0,0,0-1.776-1.776Zm14.854,10.3a.591.591,0,0,1-.451-.208L26.163,22.69,23.8,24.038a.592.592,0,0,1-.587,0L20.852,22.69l-3.418,4.018a.592.592,0,1,1-.9-.767l3.273-3.848L16.9,20.434a.593.593,0,0,1-.221-.808.592.592,0,0,1,.808-.221l6.023,3.436,1.367-.78,4.656-2.656a.592.592,0,1,1,.587,1.029L27.21,22.093l3.273,3.848a.592.592,0,0,1-.451.976Z" transform="translate(0.336 -0.207)" fill="url(#linear-gradient)"/>
  </g>
</svg>
