<svg xmlns="http://www.w3.org/2000/svg" xmlns:xlink="http://www.w3.org/1999/xlink" width="47" height="47" viewBox="0 0 47 47">
  <defs>
    <linearGradient id="linear-gradient" x1="0.5" x2="0.5" y2="1" gradientUnits="objectBoundingBox">
      <stop offset="0" stop-color="#dd4454"/>
      <stop offset="1" stop-color="#dd9044"/>
    </linearGradient>
  </defs>
  <g id="linkedIn" transform="translate(0.207 -0.499)">
    <path id="Exclusion_2" data-name="Exclusion 2" d="M23.5,47A23.5,23.5,0,0,1,6.883,6.883,23.5,23.5,0,0,1,40.117,40.117,23.346,23.346,0,0,1,23.5,47ZM26.78,22.8c1.123,0,1.693.768,1.693,2.282v5.4h3.355V24.692A4.886,4.886,0,0,0,30.77,21.3a3.623,3.623,0,0,0-2.8-1.156,3.443,3.443,0,0,0-3.038,1.678V20.385H21.582c.02.327.03,1.34.03,3.008s-.01,4.06-.03,7.088h3.355V24.844a2.184,2.184,0,0,1,.121-.816,2.207,2.207,0,0,1,.643-.868A1.649,1.649,0,0,1,26.78,22.8ZM16.368,20.385v10.1h3.354v-10.1Zm1.707-4.866a1.949,1.949,0,0,0-1.375.491,1.635,1.635,0,0,0-.529,1.247,1.682,1.682,0,0,0,.514,1.254,1.858,1.858,0,0,0,1.346.5h.014a1.948,1.948,0,0,0,1.391-.5,1.6,1.6,0,0,0,.514-1.209,1.713,1.713,0,0,0-.528-1.3A1.893,1.893,0,0,0,18.076,15.519Z" transform="translate(-0.207 0.498)" fill="url(#linear-gradient)"/>
  </g>
</svg>
