<svg xmlns="http://www.w3.org/2000/svg" xmlns:xlink="http://www.w3.org/1999/xlink" width="47" height="47" viewBox="0 0 47 47">
  <defs>
    <linearGradient id="linear-gradient" x1="0.5" x2="0.5" y2="1" gradientUnits="objectBoundingBox">
      <stop offset="0" stop-color="#dd4454"/>
      <stop offset="1" stop-color="#dd9044"/>
    </linearGradient>
  </defs>
  <g id="phone_1_" data-name="phone (1)" transform="translate(0.207 -0.499)">
    <path id="Exclusion_2" data-name="Exclusion 2" d="M23.5,47a23.673,23.673,0,0,1-4.736-.477,23.371,23.371,0,0,1-8.4-3.536A23.569,23.569,0,0,1,1.847,32.647,23.381,23.381,0,0,1,.477,28.236a23.729,23.729,0,0,1,0-9.472,23.371,23.371,0,0,1,3.536-8.4A23.569,23.569,0,0,1,14.353,1.847,23.381,23.381,0,0,1,18.764.477a23.729,23.729,0,0,1,9.472,0,23.371,23.371,0,0,1,8.4,3.536,23.569,23.569,0,0,1,8.514,10.339,23.381,23.381,0,0,1,1.369,4.411,23.729,23.729,0,0,1,0,9.472,23.371,23.371,0,0,1-3.536,8.4,23.569,23.569,0,0,1-10.339,8.514,23.381,23.381,0,0,1-4.411,1.369A23.673,23.673,0,0,1,23.5,47ZM19.3,16.615a1.261,1.261,0,0,0-.9.36l-1.3,1.3a1.967,1.967,0,0,0-.478,1.413,5.541,5.541,0,0,0,.461,2.012,15.329,15.329,0,0,0,3.382,4.815,17.358,17.358,0,0,0,3.659,2.842,6.845,6.845,0,0,0,3.162,1.029,1.926,1.926,0,0,0,1.419-.507l1.3-1.3a1.379,1.379,0,0,0,0-1.854L28.08,24.8a1.3,1.3,0,0,0-.924-.385,1.243,1.243,0,0,0-1.2.866,1.3,1.3,0,0,1-1.234.854,1.276,1.276,0,0,1-.276-.03,5.234,5.234,0,0,1-2.171-1.373,5,5,0,0,1-1.4-2.2,1.119,1.119,0,0,1,.1-.91,1.318,1.318,0,0,1,.721-.6,1.223,1.223,0,0,0,.827-.887,1.3,1.3,0,0,0-.346-1.242l-1.923-1.922A1.447,1.447,0,0,0,19.3,16.615Z" transform="translate(-0.207 0.498)" fill="url(#linear-gradient)"/>
  </g>
</svg>
