<svg xmlns="http://www.w3.org/2000/svg" width="73.96" height="74.293" viewBox="0 0 73.96 74.293"><defs><style>.a{fill:#fff;}</style></defs><path class="a" d="M68.847,6.259a21.432,21.432,0,0,0-30.275,0,21.179,21.179,0,0,0-6.132,12.709A21.55,21.55,0,0,0,34.575,31L1.147,64.428l9.532,9.532,3.883-3.883,4.216,4.216,9.047-9.047L23.609,61.03l3.1-3.1,4.216,4.216L39.975,53.1,35.759,48.88l8.348-8.348a21.551,21.551,0,0,0,12.031,2.134,21.178,21.178,0,0,0,12.709-6.132,21.431,21.431,0,0,0,0-30.274Zm-3.079,27.2a17,17,0,0,1-20.912,2.52L43.4,35.086,29.6,48.88,33.817,53.1l-2.89,2.89L26.711,51.77l-9.26,9.26,4.216,4.216-2.89,2.89-4.216-4.216L10.679,67.8,7.3,64.427,40.021,31.711l-.889-1.461a17.055,17.055,0,1,1,26.637,3.205Z" transform="translate(-1.147 0)"/><path class="a" d="M344.788,71.908a7.131,7.131,0,0,0,10.085,10.085h0a7.131,7.131,0,0,0-10.085-10.085Zm7.007,7.007a2.776,2.776,0,1,1,0-3.928A2.78,2.78,0,0,1,351.795,78.915Z" transform="translate(-293.132 -59.689)"/></svg>