<svg xmlns="http://www.w3.org/2000/svg" width="45.659" height="45.683" viewBox="0 0 45.659 45.683"><defs><style>.a{fill:#fff;}</style></defs><path class="a" d="M181.742,192.882l-6.864,6.483-3.294-3.389a.949.949,0,0,0-1.361,1.323l3.951,4.056a.967.967,0,0,0,1.343.028l7.55-7.121a.949.949,0,0,0,.038-1.342A.972.972,0,0,0,181.742,192.882Zm0,0" transform="translate(-153.814 -174.284)"/><path class="a" d="M105.1,90.551a14.223,14.223,0,1,0,14.223,14.223A14.237,14.237,0,0,0,105.1,90.551Zm0,26.543a12.319,12.319,0,1,1,12.319-12.319A12.333,12.333,0,0,1,105.1,117.093Zm0,0" transform="translate(-82.264 -81.93)"/><path class="a" d="M42.833,17.606l.314-5.646a.95.95,0,0,0-.524-.9L37.6,8.515,35.055,3.488a.966.966,0,0,0-.9-.524l-5.655.3L23.783.156a.952.952,0,0,0-1.047,0L18.023,3.269l-5.645-.314a.948.948,0,0,0-.9.524L8.931,8.505,3.9,11.047a.965.965,0,0,0-.524.9L3.695,17.6.582,22.31a.952.952,0,0,0,0,1.047l3.1,4.722-.314,5.646a.949.949,0,0,0,.524.9l5.027,2.542L11.464,42.2a.965.965,0,0,0,.9.524l5.646-.314,4.713,3.113a.927.927,0,0,0,1.047,0l4.713-3.113,5.646.314a.95.95,0,0,0,.9-.524l2.542-5.027L42.6,34.629a.966.966,0,0,0,.524-.9l-.314-5.646,3.113-4.713a.951.951,0,0,0,0-1.047ZM41.062,27.3a.894.894,0,0,0-.152.581L41.2,33.22l-4.75,2.4a.939.939,0,0,0-.419.419l-2.4,4.75L28.3,40.493a1.04,1.04,0,0,0-.581.152l-4.456,2.942L18.8,40.645a.942.942,0,0,0-.524-.162h-.048l-5.341.3-2.4-4.751a.938.938,0,0,0-.419-.419l-4.76-2.39.3-5.341a1.04,1.04,0,0,0-.152-.581L2.515,22.843l2.942-4.456a.891.891,0,0,0,.152-.581l-.3-5.341,4.751-2.4a.939.939,0,0,0,.419-.419l2.4-4.751,5.341.3A1.045,1.045,0,0,0,18.8,5.04L23.259,2.1,27.714,5.04a.893.893,0,0,0,.581.152l5.341-.3,2.4,4.751a.939.939,0,0,0,.419.419l4.75,2.4-.295,5.341a1.043,1.043,0,0,0,.152.581L44,22.843Zm0,0" transform="translate(-0.425 0.001)"/></svg>