<svg xmlns="http://www.w3.org/2000/svg" width="50.138" height="25.83" viewBox="0 0 50.138 25.83"><defs><style>.a{fill:#ffffff;}</style></defs><g transform="translate(0)"><path class="a" d="M212.219,78.855l-4.915-.714-2.2-4.454a1.146,1.146,0,0,0-2.055,0l-2.2,4.454-4.915.714a1.146,1.146,0,0,0-.635,1.954l3.557,3.467-.84,4.9a1.146,1.146,0,0,0,1.662,1.208l4.4-2.311,4.4,2.311a1.146,1.146,0,0,0,1.662-1.208l-.84-4.9,3.557-3.467a1.146,1.146,0,0,0-.635-1.954Zm-4.952,4.2a1.146,1.146,0,0,0-.329,1.014l.549,3.2-2.875-1.511a1.146,1.146,0,0,0-1.066,0l-2.875,1.511.549-3.2a1.146,1.146,0,0,0-.329-1.014l-2.326-2.267,3.214-.467a1.146,1.146,0,0,0,.863-.627l1.437-2.912,1.437,2.912a1.146,1.146,0,0,0,.863.627l3.214.467Z" transform="translate(-179.01 -64.681)"/><path class="a" d="M378.075,106.048a1.146,1.146,0,0,0-.925-.78l-3.766-.547-1.684-3.412a1.146,1.146,0,0,0-2.055,0l-1.684,3.412-3.766.547a1.146,1.146,0,0,0-.635,1.954l2.725,2.656-.643,3.75a1.146,1.146,0,0,0,1.662,1.208l3.368-1.771,3.368,1.771a1.146,1.146,0,0,0,1.662-1.208l-.643-3.75,2.725-2.656A1.146,1.146,0,0,0,378.075,106.048Zm-5.045,2.61a1.146,1.146,0,0,0-.329,1.014l.353,2.056-1.847-.971a1.146,1.146,0,0,0-1.066,0l-1.847.971.353-2.056a1.146,1.146,0,0,0-.329-1.014l-1.494-1.456,2.065-.3a1.146,1.146,0,0,0,.863-.627l.923-1.871.923,1.871a1.146,1.146,0,0,0,.863.627l2.065.3Z" transform="translate(-327.993 -89.138)"/><path class="a" d="M58.817,109.878l-.643,3.75a1.146,1.146,0,0,0,1.662,1.208l3.368-1.771,3.368,1.771a1.146,1.146,0,0,0,1.662-1.208l-.643-3.75,2.725-2.656a1.146,1.146,0,0,0-.635-1.954l-3.766-.547-1.684-3.412a1.146,1.146,0,0,0-2.055,0l-1.684,3.412-3.766.547a1.146,1.146,0,0,0-.635,1.954Zm2.6-2.977a1.146,1.146,0,0,0,.863-.627L63.2,104.4l.923,1.871a1.146,1.146,0,0,0,.863.627l2.065.3-1.494,1.456a1.146,1.146,0,0,0-.329,1.014l.353,2.056-1.847-.971a1.146,1.146,0,0,0-1.066,0l-1.847.971.353-2.056a1.146,1.146,0,0,0-.329-1.014L59.354,107.2Z" transform="translate(-55.746 -89.138)"/><path class="a" d="M265.622,5.673a1.146,1.146,0,0,0,1.146-1.146V1.146a1.146,1.146,0,1,0-2.291,0V4.527A1.146,1.146,0,0,0,265.622,5.673Z" transform="translate(-240.565 0)"/><path class="a" d="M182.779,40.618A1.146,1.146,0,1,0,184.4,39l-1.984-1.984a1.146,1.146,0,0,0-1.62,1.62Z" transform="translate(-166.173 -32.476)"/><path class="a" d="M332.527,40.954a1.142,1.142,0,0,0,.81-.336l1.984-1.984a1.146,1.146,0,0,0-1.62-1.62L331.717,39a1.145,1.145,0,0,0,.81,1.956Z" transform="translate(-299.806 -32.477)"/></g></svg>