<svg xmlns="http://www.w3.org/2000/svg" width="51.268" height="30.817" viewBox="0 0 51.268 30.817"><defs><style>.a{fill:#fff;}</style></defs><path class="a" d="M51.268,127.755a25.634,25.634,0,0,0-43.76-18.126A25.467,25.467,0,0,0,0,127.755v1.5H20.529a5.382,5.382,0,0,0,9.74,1.036,5.432,5.432,0,0,0,.472-1.036H51.268Zm-23.586,1.011a2.378,2.378,0,1,1,.255-1.8,2.381,2.381,0,0,1-.255,1.8Zm3.173-2.513c0-.013-.006-.026-.009-.039a5.351,5.351,0,0,0-1.29-2.346l4.316-7.311-2.587-1.527-4.316,7.311a5.391,5.391,0,0,0-6.559,3.912H3.053a22.461,22.461,0,0,1,2.278-8.485l3.336,1.926,1.5-2.6-3.332-1.924a22.816,22.816,0,0,1,6.21-6.21l1.924,3.332,2.6-1.5-1.926-3.336a22.462,22.462,0,0,1,8.486-2.276v3.854h3v-3.854a22.462,22.462,0,0,1,8.486,2.276L33.7,110.788l2.6,1.5,1.924-3.332a22.817,22.817,0,0,1,6.21,6.21L41.1,117.092l1.5,2.6,3.336-1.926a22.461,22.461,0,0,1,2.278,8.485Z" transform="translate(0 -102.121)"/></svg>