<svg xmlns="http://www.w3.org/2000/svg" width="25.18" height="40" viewBox="0 0 25.18 40">
  <path id="certificate_2_" data-name="certificate (2)" d="M28.224,12.369l1.553,1.262L22.976,22H21.032l-2.8-3.359,1.537-1.281L22.024,20Zm7.841,5.3.525,2.651-.455,1.4-1.982,1.835a3.445,3.445,0,0,0-.783,1.079l-1.134,2.454-1,.728L35.28,44H32.7l-3.079-2-1,2H26.191L24,33.772,21.809,44H19.382l-1-2H18.3l-3,2H12.72l4.047-16.187-1-.728-1.133-2.451a3.4,3.4,0,0,0-.787-1.084l-1.979-1.833-.455-1.4.525-2.649A3.487,3.487,0,0,0,12,17a3.434,3.434,0,0,0-.065-.666l-.525-2.651.455-1.4,1.982-1.835A3.445,3.445,0,0,0,14.63,9.37l1.134-2.454,1.19-.864,2.682-.319a3.253,3.253,0,0,0,.654-.145h0a3.3,3.3,0,0,0,.613-.268L23.264,4h1.473l2.356,1.318a3.47,3.47,0,0,0,1.271.414l2.682.319,1.19.864,1.133,2.451a3.4,3.4,0,0,0,.787,1.084l1.979,1.833.455,1.4-.525,2.649A3.488,3.488,0,0,0,36,17,3.434,3.434,0,0,0,36.065,17.666ZM22.817,29.75l-1.91-1.068a3.47,3.47,0,0,0-1.271-.414l-.9-.107L15.4,41.532,17.7,40h1.921l.7,1.4ZM32.6,41.533,29.26,28.162l-.9.107a3.253,3.253,0,0,0-.654.145,3.293,3.293,0,0,0-.617.269l-1.91,1.068L27.68,41.4l.7-1.4H30.3ZM34,17a5.44,5.44,0,0,1,.1-1.059l.424-2.136L34.4,13.4l-1.6-1.479A5.453,5.453,0,0,1,31.551,10.2l-.913-1.976-.347-.253-2.164-.257a5.448,5.448,0,0,1-1.039-.229,5.414,5.414,0,0,1-.973-.425L24.215,6h-.43l-1.9,1.064a5.483,5.483,0,0,1-.975.425,5.445,5.445,0,0,1-1.037.229l-2.164.257-.347.253-.914,1.979a5.5,5.5,0,0,1-1.24,1.709L13.6,13.4l-.133.409.424,2.138A5.312,5.312,0,0,1,14,17a5.44,5.44,0,0,1-.1,1.059l-.424,2.136.133.409,1.6,1.479A5.453,5.453,0,0,1,16.449,23.8l.913,1.976.347.253,2.164.257a5.463,5.463,0,0,1,2.012.654L23.785,28h.43l1.9-1.064a5.477,5.477,0,0,1,2.012-.654l2.164-.257.347-.253.914-1.979a5.5,5.5,0,0,1,1.24-1.709L34.4,20.6l.133-.409L34.1,18.056A5.312,5.312,0,0,1,34,17Z" transform="translate(-11.41 -4)" fill="#fff"/>
</svg>
