<svg xmlns="http://www.w3.org/2000/svg" width="664.321" height="344.525" viewBox="0 0 664.321 344.525"><defs><style>.a{opacity:0.95;}.b{fill:#e2e2e2;}.c{fill:#f5f5f578;}.d{fill:#3f3d56;}.e{fill:#fff;}</style></defs><g class="a" transform="translate(0 0.002)"><path class="b" d="M363.291,628.091l-16.364-25.97,16.372,28.8.009,2.959q1.751-.021,3.467-.134l-1.335-38.013.018-.294-.03-.056-.127-3.592,17.11-28.463L365.283,589.1l-.051.761-1.008-28.72,14.71-29.448-14.825,24.4-.69-59.529,0-.2,0,.195-.336,46.935-14.056-18.779,14.068,22.822.065,25.706-13.042-24.827,13.049,28.607.036,14.294L344.254,556.75l18.959,39.555Z" transform="translate(-203.419 -289.418)"/><path class="b" d="M551,628.091l-16.365-25.97,16.372,28.8.009,2.959q1.751-.021,3.467-.134l-1.335-38.013.018-.294-.03-.056-.127-3.592,17.11-28.463L552.994,589.1l-.051.761-1.008-28.72,14.71-29.448-14.825,24.4-.69-59.529,0-.2,0,.195-.336,46.935-14.056-18.779L550.8,547.539l.065,25.707-13.042-24.827,13.049,28.607.036,14.294L531.966,556.75l18.959,39.555Z" transform="translate(-250.702 -289.418)"/><path class="b" d="M177.183,642.65,165.366,623.9l11.822,20.8.006,2.137q1.265-.015,2.5-.1l-.964-27.449.013-.212-.022-.041-.092-2.594,12.356-20.553-12.368,18.61-.037.549-.728-20.739,10.622-21.265-10.7,17.62-.5-42.986,0-.143,0,.141-.242,33.891L166.879,568l10.159,16.48.047,18.563-9.417-17.928,9.423,20.657.026,10.322-13.68-24.962,13.69,28.563Z" transform="translate(-157.873 -302.306)"/><path class="b" d="M1007.54,628.091l-16.365-25.97,16.372,28.8.009,2.959q1.751-.021,3.467-.134l-1.335-38.013.017-.294-.03-.056-.127-3.592,17.11-28.463L1009.532,589.1l-.051.761-1.008-28.72,14.71-29.448-14.825,24.4-.69-59.529,0-.2,0,.195-.336,46.935-14.056-18.779,14.068,22.822.065,25.706-13.042-24.827,13.049,28.607.036,14.294L988.5,556.75l18.959,39.555Z" transform="translate(-365.7 -289.418)"/><rect class="c" width="88.277" height="3.741" transform="translate(286.312 299.464) rotate(180)"/><rect class="c" width="88.277" height="3.741" transform="translate(281.823 295.723) rotate(180)"/><rect class="c" width="88.277" height="3.741" transform="translate(287.06 291.983) rotate(180)"/><rect class="c" width="88.277" height="3.741" transform="translate(296.037 288.242) rotate(180)"/><rect class="d" width="3.065" height="21.761" transform="translate(135.714 289.734) rotate(180)"/><rect class="d" width="3.065" height="122.406" transform="translate(133.793 270.536) rotate(-112.092)"/><rect class="d" width="26.665" height="10.421" transform="translate(102.613 322.223) rotate(180)"/><rect class="d" width="131.488" height="11.647" transform="translate(209.887 332.643) rotate(180)"/><path class="b" d="M133.68,423.5h31.569V383.806h-23.6l-7.969,20.019Z" transform="translate(-33.673 -96.678)"/><rect class="e" width="13.486" height="13.486" transform="translate(126.673 303.066) rotate(180)"/><path class="e" d="M137.777,400.774h8.582V387.289h-3.678Z" transform="translate(-34.705 -97.555)"/><rect class="d" width="3.065" height="5.823" transform="translate(126.059 316.552) rotate(180)"/><path class="d" d="M0,0H.153A2.912,2.912,0,0,1,3.065,2.912h0A2.912,2.912,0,0,1,.153,5.823H0V0Z" transform="translate(109.049 304.139) rotate(180)"/><path class="d" d="M0,0H.153A2.912,2.912,0,0,1,3.065,2.912h0A2.912,2.912,0,0,1,.153,5.824H0V0Z" transform="translate(223.066 326.82) rotate(180)"/><path class="b" d="M267.306,643.468a15.165,15.165,0,0,0-11.787,5.867h-5.99l5.823-16.222,27.125-5.35-.766,21.572h-2.618a15.165,15.165,0,0,0-11.787-5.867Z" transform="translate(-179.559 -322.516)"/><circle class="d" cx="13.333" cy="13.333" r="13.333" transform="translate(74.109 317.318)"/><circle class="b" cx="7.017" cy="7.017" r="7.017" transform="translate(80.424 323.634)"/><circle class="d" cx="11.647" cy="11.647" r="11.647" transform="translate(196.248 320.537)"/><circle class="b" cx="6.13" cy="6.13" r="6.13" transform="translate(201.765 326.054)"/><rect class="d" width="6.436" height="46.434" transform="translate(137.094 328.046) rotate(180)"/><rect class="d" width="92.563" height="2.758" transform="translate(223.22 322.376) rotate(180)"/><rect class="d" width="3.065" height="1.226" transform="translate(110.275 305.059) rotate(180)"/><path class="d" d="M480.367,606.37a.306.306,0,0,1-.078-.238l4.227-39.973a.307.307,0,0,1,.3-.274h0a.307.307,0,0,1,.3.272l4.572,39.89a.306.306,0,0,1-.3.341l-8.8.083h0A.306.306,0,0,1,480.367,606.37Zm4.466-37.38-3.9,36.865,8.115-.077Z" transform="translate(-237.685 -306.929)"/><path class="d" d="M0,0H.153A2.912,2.912,0,0,1,3.065,2.912h0A2.912,2.912,0,0,1,.153,5.823H0V0Z" transform="matrix(0.935, 0.354, -0.354, 0.935, 75.85, 310.837)"/><rect class="d" width="3.065" height="44.749" transform="translate(248.813 266.44) rotate(180)"/><circle class="d" cx="4.291" cy="4.291" r="4.291" transform="translate(129.891 264.295)"/><rect class="c" width="88.277" height="3.741" transform="translate(228.707 319.663) rotate(180)"/><rect class="c" width="88.277" height="3.741" transform="translate(233.944 315.922) rotate(180)"/><rect class="c" width="88.277" height="3.741" transform="translate(230.204 312.93) rotate(180)"/><rect class="c" width="88.277" height="3.741" transform="translate(235.44 309.189) rotate(180)"/><path class="b" d="M534.479,341.157a11.667,11.667,0,0,1,7.658,2.853,11.675,11.675,0,0,1,5.152-.226,11.715,11.715,0,0,1,21.362,6.648H523.019A11.719,11.719,0,0,1,534.479,341.157Z" transform="translate(-248.449 -249.707)"/><path class="b" d="M442.924,390.55a11.03,11.03,0,0,1,7.24,2.7,11.038,11.038,0,0,1,4.871-.214,11.076,11.076,0,0,1,20.2,6.285H432.09A11.079,11.079,0,0,1,442.924,390.55Z" transform="translate(-225.544 -262.182)"/><path class="b" d="M351.029,309.126a11.476,11.476,0,0,1,7.533,2.807,11.484,11.484,0,0,1,5.068-.223,11.524,11.524,0,0,1,21.013,6.54H339.756a11.527,11.527,0,0,1,11.272-9.124Z" transform="translate(-202.286 -241.649)"/><path class="b" d="M751,427.015v93.443h36.339V425.717l-8.436.3V406.9h-6.119l-1.008-42.346c2.469-1.609,4.207-5.43,4.207-9.891a16.213,16.213,0,0,0-.444-3.8,7.781,7.781,0,0,0,.838-9.477,7.785,7.785,0,1,0,10.09-11.859,7.788,7.788,0,1,0-10.484-7.306c0,.114,0,.227.008.34a7.792,7.792,0,0,0-9.978,6.271,7.787,7.787,0,1,0-5.6,14.309c0,.057,0,.113,0,.169a37.849,37.849,0,0,0,2.75,6.31,15.73,15.73,0,0,0-.8,5.046c0,4.462,1.737,8.283,4.206,9.891L765.553,406.9h-6.118v19.815Zm22.692-89.226h.02c.113,0,.224,0,.335-.008q.105.345.241.676a7.807,7.807,0,0,0-.6-.669Z" transform="translate(-305.875 -243.589)"/><rect class="d" width="110.315" height="127.619" transform="translate(535.431 343.382) rotate(180)"/><rect class="b" width="29.742" height="25.956" transform="translate(495.144 343.382) rotate(180)"/><path class="b" d="M671.649,267.582c0,.094-.007.188-.007.282a12.937,12.937,0,0,0,3.935,9.3,12.969,12.969,0,0,0,.649,1.212,26.2,26.2,0,0,0-1.339,8.41c0,9.856,5.084,17.845,11.356,17.845s11.356-7.99,11.356-17.845a27,27,0,0,0-.74-6.339,12.968,12.968,0,0,0,1.4-15.795,12.976,12.976,0,1,0,16.817-19.765A12.979,12.979,0,1,0,697.6,232.715c0,.19.006.379.014.567a12.987,12.987,0,0,0-16.63,10.452,12.979,12.979,0,1,0-9.333,23.849Zm22.164-8.91c.187,0,.373-.006.558-.014q.175.575.4,1.127a13,13,0,0,0-.993-1.113Z" transform="translate(-283.297 -219.737)"/><path class="c" d="M685.941,421.177h12.98l-.464-19.466V401.7l-1.7-71.377a8.3,8.3,0,0,1-8.656,0L686.4,401.7v.008Z" transform="translate(-289.487 -247.594)"/><path class="c" d="M498.141,239.533V395.274H558.7v-157.9l-14.058.5V206.01H512.2v33.022Z" transform="translate(-125.477 -51.892)"/><path class="b" d="M878.379,267.582c0,.094-.007.188-.007.282a12.937,12.937,0,0,0,3.935,9.3,12.938,12.938,0,0,0,.649,1.212,26.2,26.2,0,0,0-1.339,8.41c0,9.856,5.084,17.845,11.356,17.845s11.356-7.99,11.356-17.845a27.013,27.013,0,0,0-.74-6.339,12.968,12.968,0,0,0,1.4-15.795A12.976,12.976,0,1,0,921.8,244.892a12.979,12.979,0,1,0-17.474-12.177c0,.19.006.379.014.567a12.987,12.987,0,0,0-16.63,10.452,12.979,12.979,0,1,0-9.333,23.849Zm22.164-8.911c.187,0,.373-.006.558-.014q.175.575.4,1.127a13.008,13.008,0,0,0-.993-1.113Z" transform="translate(-335.37 -219.737)"/><path class="c" d="M892.674,421.178h12.978l-2.163-90.847a12.793,12.793,0,0,1-8.652,0Z" transform="translate(-341.561 -247.595)"/><path class="c" d="M704.871,239.533V395.274h60.567v-157.9l-4.975.18-9.09.322V206.01H718.928v33.022Z" transform="translate(-177.55 -51.892)"/><rect class="e" width="14.962" height="14.962" transform="translate(511.694 246.128) rotate(180)"/><rect class="e" width="14.962" height="14.962" transform="translate(487.754 246.128) rotate(180)"/><rect class="e" width="14.962" height="14.962" transform="translate(463.815 246.128) rotate(180)"/><rect class="e" width="14.962" height="14.962" transform="translate(511.694 270.067) rotate(180)"/><rect class="e" width="14.962" height="14.962" transform="translate(487.754 270.067) rotate(180)"/><rect class="e" width="14.962" height="14.962" transform="translate(463.815 270.067) rotate(180)"/><rect class="e" width="14.962" height="14.962" transform="translate(511.694 294.007) rotate(180)"/><rect class="e" width="14.962" height="14.962" transform="translate(487.754 294.007) rotate(180)"/><rect class="e" width="14.962" height="14.962" transform="translate(463.815 294.007) rotate(180)"/><rect class="e" width="14.962" height="14.962" transform="translate(410.426 240.143) rotate(180)"/><rect class="e" width="14.962" height="14.962" transform="translate(410.426 264.082) rotate(180)"/><rect class="e" width="14.962" height="14.962" transform="translate(410.426 288.022) rotate(180)"/><rect class="e" width="14.962" height="14.962" transform="translate(410.426 311.961) rotate(180)"/><rect class="e" width="14.962" height="14.962" transform="translate(564.958 240.143) rotate(180)"/><rect class="e" width="14.962" height="14.962" transform="translate(564.958 264.082) rotate(180)"/><rect class="e" width="14.962" height="14.962" transform="translate(564.958 288.022) rotate(180)"/><rect class="e" width="14.962" height="14.962" transform="translate(564.958 311.961) rotate(180)"/><rect class="d" width="664.321" height="1.496" transform="translate(0 342.854)"/></g></svg>