<svg xmlns="http://www.w3.org/2000/svg" width="70.51" height="52.116" fill="#fff" viewBox="0 0 70.51 52.116"><defs><style>.a{fill:#fff;}.b{fill:#fff;}</style></defs><g transform="translate(0 -64)"><g transform="translate(9.197 73.197)"><path class="a" d="M65.533,161.722A1.533,1.533,0,0,1,64,160.19V129.533a1.533,1.533,0,0,1,3.066,0V160.19A1.533,1.533,0,0,1,65.533,161.722Z" transform="translate(-64 -128)"/><path class="a" d="M108.2,155.591a1.533,1.533,0,0,1-1.533-1.533V129.533a1.533,1.533,0,0,1,3.066,0v24.525A1.533,1.533,0,0,1,108.2,155.591Z" transform="translate(-100.535 -128)"/><path class="a" d="M150.866,155.591a1.533,1.533,0,0,1-1.533-1.533V129.533a1.533,1.533,0,0,1,3.066,0v24.525A1.533,1.533,0,0,1,150.866,155.591Z" transform="translate(-137.07 -128)"/><path class="a" d="M193.533,155.591A1.533,1.533,0,0,1,192,154.058V129.533a1.533,1.533,0,0,1,3.066,0v24.525A1.533,1.533,0,0,1,193.533,155.591Z" transform="translate(-173.606 -128)"/><path class="a" d="M236.2,161.722a1.533,1.533,0,0,1-1.533-1.533V129.533a1.533,1.533,0,0,1,3.066,0V160.19A1.533,1.533,0,0,1,236.2,161.722Z" transform="translate(-210.141 -128)"/><path class="a" d="M278.866,155.591a1.533,1.533,0,0,1-1.533-1.533V129.533a1.533,1.533,0,1,1,3.066,0v24.525A1.533,1.533,0,0,1,278.866,155.591Z" transform="translate(-246.676 -128)"/><path class="a" d="M321.533,155.591A1.533,1.533,0,0,1,320,154.058V129.533a1.533,1.533,0,0,1,3.066,0v24.525A1.533,1.533,0,0,1,321.533,155.591Z" transform="translate(-283.212 -128)"/><path class="a" d="M364.2,155.591a1.533,1.533,0,0,1-1.533-1.533V129.533a1.533,1.533,0,0,1,3.066,0v24.525A1.533,1.533,0,0,1,364.2,155.591Z" transform="translate(-319.747 -128)"/><path class="a" d="M406.866,161.722a1.533,1.533,0,0,1-1.533-1.533V129.533a1.533,1.533,0,0,1,3.066,0V160.19A1.533,1.533,0,0,1,406.866,161.722Z" transform="translate(-356.282 -128)"/><path class="a" d="M108.2,344.45a1.244,1.244,0,0,1-.582-.123,1.086,1.086,0,0,1-.49-.337,1.481,1.481,0,0,1-.053-2.093l.053-.053a1.083,1.083,0,0,1,.49-.337,1.514,1.514,0,0,1,1.655.337,1.533,1.533,0,0,1-1.073,2.606Z" transform="translate(-100.533 -310.727)"/><path class="a" d="M150.864,344.436a1.243,1.243,0,0,1-.582-.123,1.085,1.085,0,0,1-.49-.337,1.481,1.481,0,0,1-.053-2.093l.053-.053a1.083,1.083,0,0,1,.49-.337,1.5,1.5,0,0,1,1.655.337,1.086,1.086,0,0,1,.337.49,1.444,1.444,0,0,1,0,1.165,1.072,1.072,0,0,1-.337.49A1.435,1.435,0,0,1,150.864,344.436Z" transform="translate(-137.068 -310.714)"/><path class="a" d="M193.531,344.436a1.243,1.243,0,0,1-.582-.123,1.085,1.085,0,0,1-.49-.337,1.481,1.481,0,0,1-.053-2.093l.053-.053a1.083,1.083,0,0,1,.49-.337,1.5,1.5,0,0,1,1.655.337,1.086,1.086,0,0,1,.337.49,1.445,1.445,0,0,1,0,1.165,1.073,1.073,0,0,1-.337.49A1.435,1.435,0,0,1,193.531,344.436Z" transform="translate(-173.604 -310.714)"/><path class="a" d="M278.994,344.529a1.524,1.524,0,1,1,1.073-2.606,1.085,1.085,0,0,1,.337.49,1.444,1.444,0,0,1,0,1.165,1.072,1.072,0,0,1-.337.49A1.435,1.435,0,0,1,278.994,344.529Z" transform="translate(-246.805 -310.807)"/><path class="a" d="M321.661,344.529a1.533,1.533,0,1,1,1.051-.438A1.533,1.533,0,0,1,321.661,344.529Z" transform="translate(-283.34 -310.806)"/><path class="a" d="M364.2,344.529a1.435,1.435,0,0,1-1.073-.46,1.071,1.071,0,0,1-.337-.49,1.445,1.445,0,0,1,0-1.165,1.082,1.082,0,0,1,.337-.49,1.518,1.518,0,1,1,1.073,2.606Z" transform="translate(-319.746 -310.806)"/></g><g transform="translate(0 64)"><path class="b" d="M1.533,76.263A1.533,1.533,0,0,1,0,74.73v-9.2A1.533,1.533,0,0,1,1.533,64h9.2a1.533,1.533,0,1,1,0,3.066H3.066V74.73A1.533,1.533,0,0,1,1.533,76.263Z" transform="translate(0 -64)"/><path class="b" d="M10.73,353.6h-9.2A1.533,1.533,0,0,1,0,352.063v-9.2a1.533,1.533,0,1,1,3.066,0v7.664H10.73a1.533,1.533,0,0,1,0,3.066Z" transform="translate(0 -301.479)"/><path class="b" d="M416.063,76.263a1.533,1.533,0,0,1-1.533-1.533V67.066h-7.664a1.533,1.533,0,1,1,0-3.066h9.2a1.533,1.533,0,0,1,1.533,1.533v9.2A1.533,1.533,0,0,1,416.063,76.263Z" transform="translate(-347.085 -64)"/><path class="b" d="M416.063,353.6h-9.2a1.533,1.533,0,1,1,0-3.066h7.664v-7.664a1.533,1.533,0,0,1,3.066,0v9.2A1.533,1.533,0,0,1,416.063,353.6Z" transform="translate(-347.085 -301.479)"/></g><path d="M65.533,161.722A1.533,1.533,0,0,1,64,160.19V129.533a1.533,1.533,0,0,1,3.066,0V160.19A1.533,1.533,0,0,1,65.533,161.722Z" transform="translate(-54.803 -54.803)"/><path d="M108.2,155.591a1.533,1.533,0,0,1-1.533-1.533V129.533a1.533,1.533,0,0,1,3.066,0v24.525A1.533,1.533,0,0,1,108.2,155.591Z" transform="translate(-91.338 -54.803)"/><path d="M150.866,155.591a1.533,1.533,0,0,1-1.533-1.533V129.533a1.533,1.533,0,0,1,3.066,0v24.525A1.533,1.533,0,0,1,150.866,155.591Z" transform="translate(-127.873 -54.803)"/><path d="M193.533,155.591A1.533,1.533,0,0,1,192,154.058V129.533a1.533,1.533,0,0,1,3.066,0v24.525A1.533,1.533,0,0,1,193.533,155.591Z" transform="translate(-164.409 -54.803)"/><path d="M236.2,161.722a1.533,1.533,0,0,1-1.533-1.533V129.533a1.533,1.533,0,0,1,3.066,0V160.19A1.533,1.533,0,0,1,236.2,161.722Z" transform="translate(-200.944 -54.803)"/><path d="M278.866,155.591a1.533,1.533,0,0,1-1.533-1.533V129.533a1.533,1.533,0,1,1,3.066,0v24.525A1.533,1.533,0,0,1,278.866,155.591Z" transform="translate(-237.479 -54.803)"/><path d="M321.533,155.591A1.533,1.533,0,0,1,320,154.058V129.533a1.533,1.533,0,0,1,3.066,0v24.525A1.533,1.533,0,0,1,321.533,155.591Z" transform="translate(-274.015 -54.803)"/><path d="M364.2,155.591a1.533,1.533,0,0,1-1.533-1.533V129.533a1.533,1.533,0,0,1,3.066,0v24.525A1.533,1.533,0,0,1,364.2,155.591Z" transform="translate(-310.55 -54.803)"/><path d="M406.866,161.722a1.533,1.533,0,0,1-1.533-1.533V129.533a1.533,1.533,0,0,1,3.066,0V160.19A1.533,1.533,0,0,1,406.866,161.722Z" transform="translate(-347.085 -54.803)"/><path d="M108.205,344.445a1.26,1.26,0,0,1-.582-.123,1.094,1.094,0,0,1-.49-.337,1.484,1.484,0,0,1-.048-2.1l.048-.048a1.092,1.092,0,0,1,.49-.337,1.533,1.533,0,0,1,1.165,0,1.075,1.075,0,0,1,.49.337,1.533,1.533,0,0,1-1.073,2.606Z" transform="translate(-91.344 -237.525)"/><path d="M150.977,344.429a1.533,1.533,0,0,1-1.076-2.606,1.5,1.5,0,0,1,1.655-.337,1.075,1.075,0,0,1,.49.337,1.533,1.533,0,0,1-1.07,2.606Z" transform="translate(-127.984 -237.509)"/><path d="M193.644,344.449a1.533,1.533,0,0,1-1.076-2.606,1.092,1.092,0,0,1,.49-.337,1.514,1.514,0,0,1,1.655.337,1.533,1.533,0,0,1-1.073,2.606h0Z" transform="translate(-164.52 -237.529)"/><path d="M278.872,344.445a1.343,1.343,0,0,1-.582-.123,1.094,1.094,0,0,1-.49-.337,1.484,1.484,0,0,1-.048-2.1l.048-.048a1.092,1.092,0,0,1,.49-.337,1.533,1.533,0,0,1,1.165,0,1.076,1.076,0,0,1,.49.337,1.533,1.533,0,0,1-1.073,2.606Z" transform="translate(-237.485 -237.525)"/><path d="M321.539,344.529a1.344,1.344,0,0,1-.582-.123,1.094,1.094,0,0,1-.49-.337,1.484,1.484,0,0,1-.048-2.1l.048-.048a1.533,1.533,0,0,1,2.146,0,1.478,1.478,0,0,1,.057,2.089c-.019.02-.038.038-.057.057a1.079,1.079,0,0,1-.49.337A1.334,1.334,0,0,1,321.539,344.529Z" transform="translate(-274.021 -237.609)"/><path d="M364.194,344.45a1.344,1.344,0,0,1-.582-.123,1.094,1.094,0,0,1-.49-.337,1.438,1.438,0,0,1-.46-1.073,1.226,1.226,0,0,1,.123-.582,1.079,1.079,0,0,1,.334-.49,1.091,1.091,0,0,1,.49-.337,1.514,1.514,0,0,1,1.655.337,1.111,1.111,0,0,1,.337.49,1.226,1.226,0,0,1,.123.582,1.576,1.576,0,0,1-1.533,1.533Z" transform="translate(-310.545 -237.53)"/><path d="M1.533,76.263A1.533,1.533,0,0,1,0,74.73v-9.2A1.533,1.533,0,0,1,1.533,64h9.2a1.533,1.533,0,1,1,0,3.066H3.066V74.73A1.533,1.533,0,0,1,1.533,76.263Z"/><path d="M10.73,353.6h-9.2A1.533,1.533,0,0,1,0,352.063v-9.2a1.533,1.533,0,1,1,3.066,0v7.664H10.73a1.533,1.533,0,0,1,0,3.066Z" transform="translate(0 -237.479)"/><path d="M416.063,76.263a1.533,1.533,0,0,1-1.533-1.533V67.066h-7.664a1.533,1.533,0,1,1,0-3.066h9.2a1.533,1.533,0,0,1,1.533,1.533v9.2A1.533,1.533,0,0,1,416.063,76.263Z" transform="translate(-347.085)"/><path d="M416.063,353.6h-9.2a1.533,1.533,0,1,1,0-3.066h7.664v-7.664a1.533,1.533,0,0,1,3.066,0v9.2A1.533,1.533,0,0,1,416.063,353.6Z" transform="translate(-347.085 -237.479)"/></g></svg>